<svg fill="none" xmlns="http://www.w3.org/2000/svg" viewBox="0 0 143 33"><path d="M20.051 5.3 13.44 27.676 8.761 11.873H.165L3.74 23.957c1.218 4.113 5.038 6.983 9.752 6.983 4.713 0 8.427-2.873 9.642-6.985L28.646 5.3H20.05ZM4.767 23.654 1.599 12.942h6.365L12.97 29.87c-3.769-.053-7.131-2.593-8.203-6.216Zm17.34-.003c-1.069 3.623-4.431 6.166-8.2 6.22l6.942-23.502h6.366l-5.107 17.282Z" fill="#004ECF"/><path d="m40.717 5.3-6.613 22.376-4.676-15.803H20.83l3.575 12.084c1.16 3.916 4.7 6.7 8.74 6.959l-.007.024h1.93l-.007-.024c4.038-.258 7.578-3.046 8.738-6.961L49.312 5.3h-8.595Z" fill="#00D5B4"/><path d="M67.397 14.743 70.155 5.3h1.418l-2.992 9.831h-2.408l-2.527-9.403-2.543 9.403h-2.41L55.701 5.3h1.457l2.759 9.403L62.346 5.3h2.622l2.429 9.443ZM73.72 13.857c-.992-.976-1.487-2.192-1.487-3.641 0-1.45.495-2.666 1.487-3.642.99-.979 2.216-1.468 3.681-1.468 1.463 0 2.69.49 3.682 1.468.99.976 1.484 2.192 1.484 3.642 0 1.45-.495 2.665-1.484 3.641-.992.979-2.219 1.469-3.682 1.469-1.465 0-2.692-.49-3.681-1.469Zm1.07-6.312c-.708.718-1.06 1.61-1.06 2.67 0 1.062.352 1.953 1.06 2.671.704.718 1.574 1.08 2.611 1.08 1.048 0 1.923-.356 2.623-1.07.7-.712 1.048-1.606 1.048-2.68 0-1.075-.348-1.969-1.048-2.682-.7-.713-1.575-1.069-2.623-1.069-1.037 0-1.907.362-2.612 1.08ZM86.124 5.3V7.94c.335-1.125.856-1.91 1.564-2.349.704-.441 1.516-.577 2.436-.41v1.421c-1.101-.247-2.043-.082-2.825.495-.785.575-1.175 1.38-1.175 2.418v5.615h-1.458V5.3h1.458ZM96.048 9.362l4.663 5.77h-1.883l-3.77-4.704-1.846 1.963v2.74h-1.455V.754h1.455v9.733l4.78-5.187h1.865l-3.809 4.062ZM67.397 30.554l2.758-9.443h1.418l-2.992 9.831h-2.408l-2.527-9.403-2.543 9.403h-2.41l-2.992-9.831h1.457l2.759 9.403 2.429-9.403h2.622l2.429 9.443ZM76.779 20.917c1.114 0 2.021.295 2.718.883.7.59 1.051 1.418 1.051 2.48v6.662H79.09v-2.68c-.66 1.914-1.941 2.875-3.846 2.875-.894 0-1.623-.248-2.184-.74-.564-.492-.846-1.146-.846-1.963 0-.88.32-1.559.96-2.038.642-.481 1.474-.77 2.498-.875l2.195-.252c.816-.077 1.223-.453 1.223-1.126 0-.609-.212-1.088-.64-1.439-.429-.348-.99-.524-1.69-.524s-1.3.176-1.806.524c-.505.351-.848.889-1.032 1.612l-1.418-.388c.234-.97.737-1.716 1.506-2.234.771-.517 1.694-.777 2.769-.777Zm-1.165 8.993c.997 0 1.825-.332 2.487-1 .66-.665.99-1.447.99-2.34v-.815c-.181.389-.623.62-1.323.7l-2.117.231c-.596.078-1.075.256-1.436.535-.362.28-.543.657-.543 1.136 0 .465.175.843.532 1.128.356.284.827.425 1.41.425ZM83.772 22.433h-2.216v-1.322h2.216v-3.517l1.458-.446v3.963h2.992v1.322H85.23v5.166c0 .726.154 1.245.465 1.556.311.311.822.465 1.535.465h.992v1.322h-.992c-1.178 0-2.048-.279-2.612-.835-.564-.558-.846-1.412-.846-2.564v-5.11ZM90.951 29.668c-.992-.976-1.487-2.192-1.487-3.641 0-1.45.495-2.666 1.487-3.642.99-.979 2.216-1.468 3.68-1.468 1.063 0 2.01.276 2.845.827a4.94 4.94 0 0 1 1.857 2.242l-1.34.466a3.607 3.607 0 0 0-1.341-1.593 3.62 3.62 0 0 0-2.022-.583c-1.035 0-1.907.362-2.612 1.08-.705.718-1.059 1.61-1.059 2.67 0 1.062.354 1.953 1.059 2.671.705.719 1.577 1.08 2.612 1.08a3.62 3.62 0 0 0 2.022-.585 3.577 3.577 0 0 0 1.34-1.593l1.341.468a4.94 4.94 0 0 1-1.857 2.242c-.835.551-1.782.828-2.846.828-1.463 0-2.69-.49-3.679-1.469ZM106.462 20.917c1.152 0 2.101.401 2.846 1.205.745.803 1.117 1.814 1.117 3.03v5.79h-1.457v-5.615c0-.867-.285-1.596-.854-2.186-.572-.588-1.277-.883-2.118-.883-.92 0-1.678.292-2.274.875-.596.582-.894 1.314-.894 2.194v5.615h-1.457V16.565h1.457v7.073c.272-.83.732-1.49 1.381-1.982.646-.492 1.399-.74 2.253-.74ZM119.656 26.146a1.91 1.91 0 0 1 1.511.7c.404.468.606 1.048.606 1.737 0 .692-.202 1.269-.606 1.732a1.916 1.916 0 0 1-1.511.697c-.442 0-.825-.13-1.152-.389a2.191 2.191 0 0 1-.71-1.059v1.357h-.961v-6.783h.961v3.455c.146-.446.385-.797.71-1.058.327-.258.71-.389 1.152-.389Zm-.322 3.977c.404 0 .745-.149 1.021-.444.28-.295.418-.662.418-1.096 0-.439-.138-.809-.418-1.104a1.344 1.344 0 0 0-1.021-.444c-.444 0-.814.146-1.104.439-.29.292-.436.665-.436 1.109 0 .442.146.806.436 1.101.29.293.66.44 1.104.44ZM124.292 30.655l1.484-4.418h.982l-2.2 6.517h-.982l.626-1.833h-.761l-1.596-4.684h1.045l1.402 4.418ZM131.056 30.921h-1.018v-6.416h1.018v6.416ZM134.767 30.921h-1.008v-5.509h-2.069v-.907h5.149v.907h-2.072v5.51ZM137.222 29.253l1.019-.212c.056.343.208.609.458.797.25.19.585.285 1 .285.378 0 .689-.088.928-.26.242-.176.365-.397.365-.665a.726.726 0 0 0-.157-.463 1.037 1.037 0 0 0-.407-.306 6.094 6.094 0 0 0-.578-.216 6.924 6.924 0 0 0-.665-.183 3.582 3.582 0 0 1-1.242-.556 1.336 1.336 0 0 1-.407-.503 1.687 1.687 0 0 1-.157-.742c0-.521.216-.952.647-1.298.431-.346.965-.516 1.609-.516.636 0 1.162.162 1.585.49.421.326.671.75.75 1.268l-1.026.21a1.268 1.268 0 0 0-.439-.787c-.24-.202-.54-.303-.907-.303-.343 0-.623.085-.843.252-.221.168-.33.378-.33.628 0 .22.087.404.266.55.175.147.399.253.667.317.269.064.559.146.873.248.311.1.601.21.87.33.268.117.492.31.667.577.179.266.266.59.266.976 0 .532-.226.97-.678 1.32-.452.348-1.013.52-1.686.52-.671 0-1.227-.159-1.668-.476a1.86 1.86 0 0 1-.78-1.282Z" fill="#004ECF"/></svg>